<svg width="160" height="160" viewBox="0 0 160 160" fill="none" xmlns="http://www.w3.org/2000/svg">
<g clip-path="url(#clip0_2357_233)">
<path d="M0 89.3751C0 86.7719 0 84.1657 0 81.5626C0.10625 81.0626 0.234375 80.5657 0.315625 80.0626C1.00313 75.7563 1.35312 71.3626 2.4125 67.1501C10.1344 36.4157 36.8531 13.8876 68.4062 11.3657C70.3437 11.2094 72.3031 11.3469 74.3781 11.3469C74.3781 12.1032 74.3781 12.7719 74.3781 13.4407C74.3781 36.8219 74.3781 60.2032 74.3781 83.5844C74.3781 84.9407 75.0563 85.6198 76.4125 85.6219C99.8469 85.6219 123.278 85.6219 146.713 85.6219C147.369 85.6219 148.028 85.6219 148.813 85.6219C148.813 86.3594 148.822 86.8688 148.813 87.3782C148.5 101.634 144.466 114.781 136.491 126.572C124.222 144.713 107.197 155.591 85.5219 159.066C83.1719 159.444 80.8 159.691 78.4375 159.997H70.625C70.175 159.897 69.725 159.731 69.2719 159.703C58.6719 159.028 48.6313 156.256 39.3781 151.091C17.8406 139.072 4.9375 120.863 0.91875 96.4626C0.53125 94.1126 0.303125 91.7376 0 89.3751Z" fill="#767171"/>
<path d="M160 74.375H85.625V0C86.875 0 88.125 0 89.375 0C90.4969 0.1375 91.6187 0.284375 92.7437 0.40625C104.887 1.70313 116.188 5.47188 126.331 12.3156C144.613 24.6531 155.6 41.725 159.069 63.5563C159.441 65.9031 159.691 68.2688 160 70.625V74.375Z" fill="#427BE9"/>
</g>
<defs>
<clipPath id="clip0_2357_233">
<rect width="160" height="160" fill="white"/>
</clipPath>
</defs>
</svg>
