<svg width="160" height="160" viewBox="0 0 160 160" fill="none" xmlns="http://www.w3.org/2000/svg">
<g clip-path="url(#clip0_2357_257)">
<path d="M59.906 159.981V147.073H46.8045V159.969H33.1642V146.942H13.2143V126.994H0V113.466H12.807V100.258H0.0125313V86.6982H12.8885V73.4145H0.018797V60.0681H12.9198V46.8595H0.0313283V33.2501H12.8509C14.3296 21.1187 21.015 14.4173 33.1579 12.9268V0H46.5602V12.933H59.8747V0.0187889H73.2268V12.9268H86.6291V0.0250519H99.9812V12.9268H113.296V0.0313148H126.717V12.8579C138.759 14.3923 145.639 20.8933 147.068 33.1248H160V46.5088H147.168V59.8301H159.987V73.1765H147.18V86.6669H159.987V100.026H147.055V113.234H159.969V126.869H146.917V146.81H126.961V160.006H113.427V147.192H100.213V159.994H86.7419V147.205H73.3647V159.994H59.8997L59.906 159.981ZM89.8559 113.347C89.9311 112.771 90.0188 112.552 89.9749 112.364C85.7206 93.9821 81.5226 75.5877 77.1429 57.2373C76.015 52.515 73.0827 49.0578 68.3145 47.442C59.8935 44.5861 51.8045 49.2958 49.5802 58.4711C47.5376 66.876 45.6391 75.3184 43.6905 83.7484C41.4348 93.4873 39.198 103.226 36.8546 113.372C40.4887 113.372 43.8158 113.178 47.1178 113.435C49.881 113.648 51.2155 112.733 51.297 109.953C51.3784 107.278 52.8446 106.627 55.3947 106.727C60.7143 106.934 66.0526 106.953 71.3659 106.727C74.1729 106.602 75.6078 107.316 75.9023 110.278C76.0088 111.356 77.0614 113.159 77.7882 113.216C81.8108 113.504 85.8647 113.353 89.8559 113.353V113.347ZM100.232 46.8219V113.166H113.095V46.8219H100.232Z" fill="#427BE9"/>
<path d="M55.2068 93.1679C57.8384 81.8945 60.3885 70.9531 62.9386 60.0117C63.3396 60.0117 63.7406 60.0242 64.1416 60.0305C66.698 70.997 69.2544 81.9571 71.8672 93.1679H55.2068Z" fill="#427BE9"/>
</g>
<defs>
<clipPath id="clip0_2357_257">
<rect width="160" height="160" fill="white"/>
</clipPath>
</defs>
</svg>
