<svg width="465" height="437" viewBox="0 0 465 437" fill="none" xmlns="http://www.w3.org/2000/svg">
<g clip-path="url(#clip0_2342_189)">
<path d="M240.719 278.47C187.997 278.47 135.314 278.63 82.5919 278.47C37.4871 278.35 5.37252 252.462 0.641532 212.87C-4.37011 170.753 19.0443 138.814 64.3495 127.794C73.4105 125.59 75.4553 122.464 75.8963 113.608C78.7429 57.0645 110.096 17.0312 160.894 3.72687C209.446 -8.97638 256.636 11.1404 287.067 58.5072C291.998 66.2012 295.206 67.684 304.066 64.5582C370.42 41.4359 427.232 89.6842 414.202 158.29C412.237 168.669 415.605 169.991 423.784 172.596C451.97 181.532 468.127 205.536 464.439 231.223C460.389 259.675 438.418 278.109 406.785 278.269C351.416 278.59 296.048 278.35 240.679 278.39L240.719 278.47Z" fill="#C5C5C5"/>
<path d="M235.627 339.702C234.865 346.073 234.545 355.451 232.54 364.467C228.972 380.617 217.465 389.313 201.829 391.757C186.032 394.242 172.841 388.551 164.141 374.846C155.561 361.301 154.439 346.715 164.422 333.771C179.697 313.935 201.548 301.792 222.196 288.448C229.573 283.679 231.337 288.809 231.858 295.06C233.021 308.966 234.224 322.871 235.627 339.702Z" fill="#BFD5FC"/>
<path d="M235.627 339.702C234.865 346.073 234.545 355.451 232.54 364.467C228.972 380.617 217.465 389.313 201.829 391.757C186.032 394.242 172.841 388.551 164.141 374.846C155.561 361.301 154.439 346.715 164.422 333.771C179.697 313.935 201.548 301.792 222.196 288.448C229.573 283.679 231.337 288.809 231.858 295.06C233.021 308.966 234.224 322.871 235.627 339.702Z" fill="#427BE9"/>
<path d="M353.541 371.961C352.699 383.221 352.659 394.642 350.855 405.783C348.088 423.014 336.622 432.792 319.943 435.477C303.104 438.162 289.512 431.51 280.973 416.803C272.433 402.096 273.154 386.988 284.701 374.045C300.017 356.973 319.582 345.152 338.747 333.01C347.246 327.6 349.211 332.969 349.853 339.982C350.815 350.602 351.617 361.261 352.499 371.921C352.819 371.921 353.18 371.961 353.501 372.001L353.541 371.961Z" fill="#BFD5FC"/>
<path d="M353.541 371.961C352.699 383.221 352.659 394.642 350.855 405.783C348.088 423.014 336.622 432.792 319.943 435.477C303.104 438.162 289.512 431.51 280.973 416.803C272.433 402.096 273.154 386.988 284.701 374.045C300.017 356.973 319.582 345.152 338.747 333.01C347.246 327.6 349.211 332.969 349.853 339.982C350.815 350.602 351.617 361.261 352.499 371.921C352.819 371.921 353.18 371.961 353.501 372.001L353.541 371.961Z" fill="#427BE9"/>
<path d="M111.419 329.844C117.713 355.33 118.074 379.094 116.27 402.817C114.907 420.61 104.443 432.111 86.8417 435.878C68.5191 439.805 53.7248 433.514 44.9444 416.883C36.7253 401.254 38.4493 385.666 51.1588 372.923C68.479 355.571 88.5657 341.906 111.379 329.844H111.419Z" fill="#BFD5FC"/>
<path d="M111.419 329.844C117.713 355.33 118.074 379.094 116.27 402.817C114.907 420.61 104.443 432.111 86.8417 435.878C68.5191 439.805 53.7248 433.514 44.9444 416.883C36.7253 401.254 38.4493 385.666 51.1588 372.923C68.479 355.571 88.5657 341.906 111.379 329.844H111.419Z" fill="#427BE9"/>
</g>
<defs>
<clipPath id="clip0_2342_189">
<rect width="465" height="437" fill="white"/>
</clipPath>
</defs>
</svg>
