<svg width="161" height="160" viewBox="0 0 161 160" fill="none" xmlns="http://www.w3.org/2000/svg">
<path d="M80.5268 160.001C36.8649 160.07 0.608005 124.285 0.421704 80.939C0.228669 35.2475 34.755 0.171847 80.098 0.000625688C125.672 -0.170596 160.484 34.8195 160.421 80.7362C160.362 124.078 124.227 159.926 80.5268 159.998V160.001ZM78.1542 36.0608C58.1863 38.5323 45.3472 48.9182 39.0714 67.2052C35.6259 77.2442 36.2724 87.3057 40.6224 97.0068C42.2744 100.693 45.9174 102.148 49.2753 100.875C52.6713 99.5886 54.3166 96.0898 53.2527 92.2892C52.8846 90.9757 52.3414 89.7141 51.9351 88.4096C46.4628 70.8324 59.5914 51.1486 77.5796 50.3826C77.0678 51.1148 76.693 51.7231 76.2486 52.2751C73.0568 56.247 72.9221 60.0679 75.8917 62.7872C78.9668 65.6033 82.5581 65.2294 86.3021 61.5481C90.7419 57.1819 95.1391 52.7662 99.4823 48.3032C102.302 45.4082 102.923 41.8553 100.219 38.8635C95.2333 33.3506 89.9653 28.0607 84.4458 23.0885C81.6311 20.554 78.0577 21.0361 75.4652 23.8973C73.041 26.5715 73.0859 29.7121 75.1869 32.6815C75.95 33.7583 76.9287 34.682 78.152 36.0631L78.1542 36.0608ZM82.7063 123.456C84.255 123.274 85.2651 123.177 86.2684 123.035C113.758 119.115 131.266 89.3964 120.932 64.202C118.923 59.3042 115.361 57.2585 111.516 58.795C107.567 60.3721 106.97 63.8641 108.084 69.1607C109.213 74.5362 110.151 80.3329 109.338 85.6633C107.356 98.6559 95.2984 109.076 83.2382 109.15C83.8981 108.314 84.4436 107.623 84.989 106.931C87.8598 103.295 87.8217 99.3814 84.8857 96.7657C81.97 94.1704 78.437 94.3438 75.1577 97.5249C70.471 102.069 65.892 106.73 61.3243 111.396C58.633 114.145 57.9439 117.639 60.4511 120.453C65.4902 126.108 70.884 131.483 76.4887 136.577C79.1172 138.967 82.6052 138.566 85.1484 135.973C87.8307 133.238 87.8307 129.99 85.604 126.853C84.8453 125.783 83.9026 124.844 82.7063 123.452V123.456Z" fill="#427BE9"/>
</svg>
